<svg width="35" height="32" viewBox="0 0 35 32" fill="none" xmlns="http://www.w3.org/2000/svg">
<path d="M22.7872 0.5H12.2128C2.56259 0.5 0.277771 2.55633 0.277771 11.2415V20.7585C0.277771 29.4437 2.56259 31.5 12.2128 31.5H22.7872C32.4374 31.5 34.7222 29.4437 34.7222 20.7585V11.2415C34.7222 2.55633 32.413 0.5 22.7872 0.5V0.5ZM28.0859 22.6172H25.583C24.6357 22.6172 24.343 21.9391 22.6408 20.3865C21.1583 19.0948 20.5024 18.9205 20.1379 18.9205C19.6269 18.9205 19.4805 19.0522 19.4805 19.6864V21.7208C19.4805 22.2685 19.2868 22.5965 17.6823 22.5965C15.0329 22.5965 12.0908 21.1525 10.0255 18.4606C6.91407 14.5236 6.06157 11.5696 6.06157 10.9573C6.06157 10.6292 6.20796 10.3231 6.91263 10.3231H9.41559C10.0471 10.3231 10.2911 10.5853 10.535 11.1976C11.7736 14.4138 13.8403 17.2361 14.6913 17.2361C15.0071 17.2361 15.1535 17.1044 15.1535 16.3836V13.0563C15.0559 11.5244 14.156 11.3939 14.156 10.8475C14.156 10.584 14.4 10.3218 14.7875 10.3218H18.7256C19.261 10.3218 19.4547 10.584 19.4547 11.1524V15.6383C19.4547 16.1188 19.6987 16.2945 19.8436 16.2945C20.1594 16.2945 20.4278 16.1188 21.0105 15.5944C22.8102 13.7783 24.0975 10.978 24.0975 10.978C24.2683 10.6499 24.5597 10.3438 25.1926 10.3438H27.6955C28.449 10.3438 28.6198 10.6925 28.449 11.1743C28.1333 12.488 25.0706 16.381 25.0706 16.381C24.8036 16.775 24.7061 16.9494 25.0706 17.3885C25.3375 17.7166 26.213 18.3947 26.7971 19.007C27.8663 20.101 28.6916 21.0194 28.9111 21.6549C29.1551 22.2878 28.7892 22.6159 28.0845 22.6159L28.0859 22.6172Z" fill="white"/>
</svg>
